<svg width="203" height="47" viewBox="0 0 203 47" fill="none" xmlns="http://www.w3.org/2000/svg">
<g clip-path="url(#clip0_1058_376)">
<path d="M58.5702 24.1958C58.6105 23.41 58.6105 22.6226 58.5702 21.8368H14.2963C14.287 22.0326 14.2788 22.2296 14.2742 22.4266H4.99917L4.9945 22.7214H0V23.3112H4.99333L5.00033 23.6061H14.2742C14.2788 23.8042 14.2858 24 14.2975 24.1958H27.0083C26.9601 23.8045 26.9359 23.4106 26.936 23.0163H45.6027C45.6027 23.4162 45.5793 23.8101 45.5303 24.1958H58.5702ZM58.478 20.6573H45.3098C45.2074 20.256 45.0788 19.862 44.9248 19.4778H27.6173C27.4645 19.86 27.335 20.2528 27.2323 20.6573H14.3873C14.4083 20.4604 14.4317 20.2634 14.4573 20.0676H5.18233L5.222 19.7798H0V19.1901H5.31417L5.36783 18.8881H14.6428C14.6778 18.6911 14.7175 18.4942 14.7595 18.2984H58.1082C58.2715 19.0709 58.3963 19.8576 58.478 20.6573ZM57.8247 17.1189H43.5563C43.2198 16.6942 42.8478 16.2996 42.4445 15.9394H30.0965C29.694 16.3003 29.3207 16.6943 28.9847 17.1189H15.043C15.0955 16.9219 15.1515 16.7249 15.2098 16.5291H5.93483L6.0375 16.1977H0V15.6068H6.23233L6.32333 15.3485H15.5983C15.6683 15.1503 15.743 14.9545 15.82 14.7587H57.0465C57.3475 15.5254 57.6077 16.3145 57.8247 17.1189ZM56.5448 13.5804H16.3217C16.4127 13.3823 16.506 13.1865 16.6028 12.9907H7.329L7.4935 12.6651H0V12.0754H7.80967L7.95783 11.8112H17.2328C17.346 11.613 17.4627 11.4161 17.5817 11.2214H55.2848C55.7492 11.9787 56.1715 12.7666 56.5448 13.5804ZM14.3873 25.3753H58.4792C58.3963 26.175 58.2715 26.9629 58.1082 27.7343H44.3555C44.5713 27.3568 44.7627 26.9629 44.926 26.5548H27.615C27.7783 26.9629 27.9685 27.3568 28.1843 27.7343H14.7583C14.7168 27.5382 14.6779 27.3416 14.6417 27.1445H5.36783C5.34883 27.0409 5.33055 26.9371 5.313 26.8331H0V26.2434H5.22083C5.20744 26.1507 5.1946 26.0579 5.18233 25.965H14.4573C14.4314 25.7688 14.4081 25.5722 14.3873 25.3753ZM15.0418 28.9137H57.8235C57.6077 29.7193 57.3475 30.5061 57.0465 31.2727H40.7925C41.3837 30.941 41.9375 30.5455 42.4445 30.0932H30.0965C30.6035 30.5455 31.1573 30.941 31.7485 31.2727H15.82C15.7434 31.0772 15.6695 30.8806 15.5983 30.683H6.32333L6.223 30.3987H0V29.809H6.02933C5.99751 29.7074 5.9664 29.6055 5.936 29.5035H15.2098C15.1515 29.3077 15.0955 29.1119 15.0418 28.9137ZM16.3217 32.4522H56.5448C56.1718 33.2633 55.7511 34.051 55.2848 34.8112H17.5817C17.462 34.6164 17.3453 34.4198 17.2317 34.2214H7.95783C7.8995 34.12 7.84233 34.0186 7.78633 33.916H0V33.3262H7.4725L7.329 33.0431H16.604C16.5071 32.848 16.4129 32.6513 16.3217 32.4534V32.4522ZM19.74 37.7599C19.9115 37.9604 20.0877 38.1562 20.2673 38.3496H52.5992C53.2877 37.6078 53.9258 36.8197 54.509 35.9907H18.3575C18.4975 36.19 18.6398 36.387 18.7868 36.5804H9.51183L9.74283 36.8812H0V37.4709H10.22C10.3005 37.5688 10.3822 37.6644 10.465 37.7599H19.74ZM23.6098 41.2984C23.8933 41.5024 24.1815 41.6994 24.4732 41.8881H48.3933C49.4671 41.1909 50.4796 40.4017 51.4197 39.5291H21.448C21.6638 39.7296 21.8843 39.9266 22.1083 40.1189H12.8333C12.9593 40.2274 13.0865 40.3335 13.2148 40.4373H0V41.0271H13.9673C14.0887 41.1191 14.2123 41.2099 14.336 41.2984H23.611H23.6098ZM31.7963 44.9359C33.292 45.2579 34.8425 45.4266 36.4327 45.4266C39.9957 45.4266 43.3615 44.5773 46.3435 43.0676H26.5218C26.9372 43.2775 27.3583 43.4745 27.7865 43.6573H18.5115C18.6772 43.7281 18.844 43.7977 19.0108 43.8649H0V44.4547H20.6792C22.729 45.0869 24.9048 45.4266 27.1588 45.4266C28.749 45.4266 30.3007 45.2579 31.7963 44.9359ZM18.3575 10.042H54.509C53.9258 9.21291 53.2878 8.42478 52.5992 7.68298H20.2673C20.0877 7.87641 19.9115 8.07221 19.7388 8.27272H10.465L10.2597 8.51569H0V9.10544H9.779C9.68917 9.21985 9.6005 9.33544 9.513 9.45221H18.7868C18.6398 9.64682 18.4975 9.8438 18.3575 10.042ZM21.4468 6.50349H51.4185C50.4789 5.63096 49.4667 4.84173 48.3933 4.14451H24.4732C24.1815 4.33441 23.8933 4.53139 23.6098 4.73426H14.336C14.2077 4.82744 14.0793 4.92062 13.9533 5.01616H0V5.6059H13.202C13.0783 5.70734 12.9558 5.80995 12.8345 5.91375H22.1083C21.8843 6.106 21.6638 6.30298 21.4468 6.50349ZM26.523 2.96503H46.3447C43.268 1.40862 39.8741 0.600804 36.4338 0.606053C34.8425 0.606053 33.292 0.775899 31.7963 1.0979C30.2718 0.770238 28.7174 0.605385 27.1588 0.606053C24.6692 0.606053 22.2763 1.02123 20.0422 1.78554H0V2.37528H27.7865C27.3593 2.55837 26.9379 2.75505 26.523 2.96503ZM129.789 0.273438C130.556 0.273438 131.158 0.466873 131.595 0.853745C132.051 1.22292 132.279 1.73836 132.279 2.40359C132.279 3.06764 132.051 3.59251 131.595 3.97939C131.158 4.34857 130.556 4.53375 129.789 4.53375C129.024 4.53375 128.413 4.34857 127.956 3.97939C127.519 3.59251 127.3 3.06764 127.3 2.40359C127.3 1.73954 127.519 1.2241 127.956 0.853745C128.413 0.466873 129.024 0.273438 129.789 0.273438ZM131.923 7.10503V19.137C131.923 19.9119 132.051 20.438 132.307 20.714C132.58 20.9911 133.036 21.1291 133.674 21.1291V21.7094C133.164 21.6842 132.653 21.6657 132.142 21.654C131.441 21.6169 130.738 21.5984 130.035 21.5986C129.325 21.5986 128.604 21.6174 127.875 21.654C127.327 21.6662 126.78 21.6847 126.233 21.7094V21.1291C126.871 21.1291 127.318 20.9911 127.574 20.714C127.847 20.438 127.984 19.9119 127.984 19.137V10.4241C127.984 9.59492 127.856 8.98513 127.601 8.59944C127.364 8.19369 126.908 7.99082 126.233 7.99082V7.40934C126.817 7.46477 127.382 7.4919 127.93 7.4919C128.695 7.4919 129.407 7.46477 130.063 7.40934C130.738 7.33621 131.358 7.23477 131.923 7.10503Z" fill="#0E384C"/>
<path fill-rule="evenodd" clip-rule="evenodd" d="M139.624 9.64468V7.10642C139.059 7.23616 138.438 7.3376 137.764 7.41073C137.088 7.46616 136.377 7.49329 135.629 7.49329C135.082 7.49329 134.517 7.46616 133.933 7.41073V7.99221C134.589 7.99221 135.046 8.19509 135.301 8.60083C135.557 8.9877 135.684 9.59632 135.684 10.4255V24.2562C135.684 24.9933 135.557 25.4911 135.301 25.7494C135.064 26.0077 134.644 26.1363 134.042 26.1363V26.7178L135.492 26.6352C136.158 26.6164 136.824 26.607 137.49 26.6069C138.42 26.6069 139.296 26.6163 140.116 26.634C140.955 26.6718 141.612 26.6989 142.086 26.7166V26.1363C141.32 26.1363 140.718 25.9888 140.28 25.694C139.843 25.418 139.624 24.8459 139.624 23.979V21.2072C139.864 21.4101 140.146 21.5775 140.472 21.7108C141.055 21.9703 141.703 22.0989 142.414 22.0989C143.381 22.0989 144.247 21.9231 145.014 21.5728C145.793 21.2264 146.478 20.6951 147.011 20.0242C147.576 19.3235 148.005 18.4661 148.297 17.4517C148.607 16.4373 148.762 15.2579 148.762 13.9109C148.762 12.3811 148.543 11.1084 148.105 10.0941C147.668 9.06083 147.083 8.29652 146.354 7.79878C145.625 7.28244 144.754 7.0113 143.864 7.02385C142.806 7.02385 141.876 7.29985 141.074 7.85303C140.443 8.28355 139.96 8.88037 139.624 9.64585V9.64468ZM139.624 10.5953V20.6222C139.775 20.8038 139.958 20.9548 140.171 21.0751C140.517 21.2591 140.909 21.3511 141.348 21.3511C142.168 21.3511 142.816 21.0751 143.29 20.5219C143.764 19.9499 144.101 19.1572 144.302 18.1429C144.521 17.1108 144.631 15.8842 144.631 14.4641C144.631 12.8788 144.531 11.6333 144.33 10.7298C144.129 9.82632 143.855 9.18114 143.509 8.79427C143.162 8.40621 142.743 8.21278 142.25 8.21278C141.594 8.21278 140.992 8.47227 140.445 8.9877C140.033 9.38873 139.759 9.92539 139.624 10.5953Z" fill="#0E384C"/>
<path d="M155.043 7.0237C155.81 7.0237 156.475 7.12514 157.041 7.32801C157.624 7.51201 158.044 7.69719 158.3 7.88119C158.919 8.30581 159.303 8.02863 159.449 7.05083H160.023C159.987 7.56745 159.959 8.20437 159.941 8.95924C159.922 9.6976 159.913 10.6837 159.913 11.9198H159.339C159.245 11.2282 159.071 10.5503 158.819 9.90047C158.586 9.26981 158.201 8.70841 157.698 8.26806C157.223 7.84345 156.603 7.63114 155.837 7.63114C155.308 7.63114 154.861 7.78919 154.496 8.10294C154.131 8.39781 153.949 8.83068 153.949 9.40273C153.949 9.95591 154.114 10.4442 154.441 10.8688C154.77 11.2746 155.189 11.6709 155.7 12.0578C156.229 12.4269 156.776 12.8232 157.342 13.2467C157.944 13.7079 158.491 14.169 158.983 14.6302C159.455 15.0474 159.853 15.5432 160.159 16.0963C160.452 16.6306 160.598 17.2664 160.598 18.0047C160.598 18.8339 160.36 19.5617 159.886 20.1891C159.411 20.7978 158.783 21.2684 157.999 21.5998C157.232 21.9324 156.375 22.0987 155.427 22.0987C154.93 22.1044 154.433 22.0486 153.949 21.9324C153.57 21.8369 153.203 21.6976 152.855 21.5172C152.618 21.4064 152.389 21.3049 152.171 21.2129C151.985 21.1094 151.793 21.0173 151.596 20.9369C151.414 20.8815 151.249 20.9452 151.104 21.1304C150.976 21.3144 150.876 21.5727 150.803 21.9041H150.229C150.265 21.3144 150.293 20.5949 150.31 19.7468C150.329 18.8988 150.338 17.7736 150.338 16.3735H150.912C151.022 17.369 151.223 18.2536 151.514 19.0273C151.806 19.7846 152.198 20.3838 152.69 20.8261C153.201 21.2507 153.839 21.463 154.606 21.463C154.916 21.463 155.217 21.3981 155.509 21.2684C155.801 21.1386 156.037 20.9263 156.221 20.6314C156.421 20.3366 156.522 19.9591 156.522 19.4991C156.522 18.6865 156.257 18.013 155.727 17.4787C155.217 16.9444 154.56 16.3629 153.758 15.7366C153.174 15.2565 152.618 14.7871 152.089 14.3259C151.599 13.8726 151.175 13.3512 150.831 12.7772C150.497 12.1881 150.327 11.5191 150.338 10.8405C150.338 10.0113 150.556 9.31073 150.994 8.73868C151.44 8.16066 152.038 7.71995 152.718 7.46601C153.458 7.1691 154.247 7.01893 155.043 7.0237ZM189.006 7.32801C188.531 7.12514 187.912 7.0237 187.145 7.0237C186.287 7.0149 185.441 7.22417 184.684 7.63232C183.936 8.01919 183.343 8.67381 182.905 9.59617V7.10745C182.34 7.23601 181.719 7.33745 181.045 7.41058C180.388 7.46601 179.676 7.49314 178.911 7.49314C178.364 7.49314 177.798 7.46601 177.215 7.41058V7.99206C177.889 7.99206 178.345 8.19494 178.582 8.60068C178.838 8.98755 178.965 9.59617 178.965 10.4253V19.1382C178.965 19.9131 178.828 20.4392 178.555 20.7152C178.3 20.9924 177.853 21.1304 177.215 21.1304V21.7107C177.762 21.6859 178.309 21.6674 178.856 21.6552C179.567 21.6188 180.278 21.6004 180.99 21.5998C181.628 21.5998 182.249 21.6187 182.85 21.6552C183.47 21.6741 183.927 21.693 184.218 21.7107V21.1304C183.745 21.1304 183.406 20.9924 183.206 20.7152C183.005 20.4392 182.905 19.9131 182.905 19.1382V11.4491C182.905 10.8405 183.024 10.2968 183.26 9.81673C183.516 9.31899 183.844 8.93211 184.245 8.65611C184.63 8.38461 185.089 8.23965 185.559 8.24094C185.979 8.24094 186.288 8.34237 186.489 8.54524C186.708 8.72924 186.854 8.99699 186.927 9.34729C187 9.67873 187.036 10.075 187.036 10.5362V19.1382C187.036 19.9131 186.935 20.4392 186.735 20.7152C186.553 20.9924 186.216 21.1304 185.723 21.1304V21.7107C186.051 21.693 186.534 21.6741 187.173 21.6552C188.467 21.5806 189.764 21.5806 191.058 21.6552C191.733 21.6741 192.234 21.693 192.562 21.7107V21.1304C191.979 21.1304 191.568 20.9924 191.331 20.7152C191.095 20.4392 190.976 19.9131 190.976 19.1382V11.5718L190.974 11.4857L190.97 11.2062C191.012 10.7438 191.134 10.2926 191.331 9.87334C191.587 9.37442 191.915 8.97811 192.316 8.68324C192.717 8.38837 193.156 8.24094 193.63 8.24094C194.103 8.24094 194.451 8.34237 194.669 8.54524C194.906 8.72924 195.061 8.99699 195.135 9.34729C195.226 9.67873 195.271 10.075 195.271 10.5362V19.1382C195.271 19.9131 195.171 20.4392 194.97 20.7152C194.788 20.9924 194.451 21.1304 193.958 21.1304V21.7107C194.287 21.693 194.77 21.6741 195.408 21.6552C196.055 21.6181 196.702 21.5996 197.35 21.5998C198.026 21.5998 198.709 21.6187 199.402 21.6552C200.095 21.6741 200.616 21.693 200.962 21.7107V21.1304C200.324 21.1304 199.868 20.9924 199.594 20.7152C199.338 20.4392 199.211 19.9131 199.211 19.1382V11.698C199.211 10.7757 199.147 10.0385 199.02 9.48529C198.891 8.91324 198.683 8.45324 198.39 8.10294C198.098 7.77032 197.715 7.51319 197.241 7.32801C196.767 7.12514 196.146 7.0237 195.381 7.0237C194.451 7.0237 193.575 7.21714 192.755 7.60401C191.968 7.98381 191.331 8.70801 190.843 9.77663C190.826 9.67899 190.806 9.58184 190.784 9.48529C190.657 8.91324 190.447 8.45324 190.155 8.10294C189.864 7.77032 189.48 7.51319 189.006 7.32801ZM175.068 18.6959V7.10627C174.502 7.23601 173.883 7.33745 173.207 7.41058C172.552 7.46601 171.84 7.49314 171.073 7.49314C170.526 7.49314 169.962 7.46601 169.377 7.41058V7.99206C170.053 7.99206 170.509 8.19494 170.746 8.60068C171.001 8.98755 171.128 9.59617 171.128 10.4253V17.6721C171.128 18.2807 171.001 18.8339 170.746 19.3317C170.529 19.7874 170.199 20.1784 169.788 20.4663C169.405 20.7432 168.945 20.8887 168.474 20.8815C168.019 20.8815 167.673 20.7883 167.435 20.6043C167.189 20.3868 167.016 20.0968 166.942 19.7751C166.865 19.3742 166.828 18.9664 166.833 18.5579V7.10627C166.268 7.23601 165.647 7.33745 164.973 7.41058C164.316 7.46601 163.604 7.49314 162.839 7.49314C162.292 7.49314 161.726 7.46601 161.143 7.41058V7.99206C161.817 7.99206 162.273 8.19494 162.51 8.60068C162.766 8.98755 162.893 9.59617 162.893 10.4253V17.4232C162.893 18.3267 162.957 19.0651 163.085 19.636C163.212 20.208 163.432 20.6692 163.741 21.0195C164.015 21.3332 164.388 21.5916 164.863 21.7944C165.337 21.9961 165.958 22.0987 166.724 22.0987C167.673 22.0987 168.529 21.9041 169.295 21.5172C170.079 21.1115 170.691 20.4474 171.128 19.5263V22.015C171.739 21.8629 172.362 21.7611 172.989 21.7107C173.646 21.6552 174.356 21.6281 175.123 21.6281C175.689 21.6281 176.253 21.6552 176.819 21.7107V21.1304C176.162 21.1304 175.706 20.9369 175.451 20.5489C175.195 20.1431 175.068 19.5263 175.068 18.6971V18.6959Z" fill="#0E384C"/>
<path fill-rule="evenodd" clip-rule="evenodd" d="M122.146 7.77064C121.142 7.27289 119.974 7.02402 118.643 7.02402C117.348 7.02402 116.19 7.27289 115.169 7.77064C114.166 8.26838 113.372 9.07043 112.789 10.1768C112.223 11.2832 111.94 12.7493 111.94 14.5751C111.94 16.4009 112.223 17.8659 112.788 18.9734C113.371 20.0609 114.164 20.8535 115.168 21.3513C116.19 21.849 117.348 22.099 118.643 22.099C119.974 22.099 121.142 21.849 122.146 21.3513C123.148 20.8535 123.933 20.0609 124.498 18.9734C125.063 17.867 125.346 16.4009 125.346 14.5751C125.346 12.7493 125.063 11.2843 124.498 10.1768C123.933 9.07043 123.148 8.26838 122.146 7.77064ZM116.81 9.23674C117.303 8.13038 117.914 7.5772 118.643 7.5772C119.391 7.5772 120.002 8.13038 120.476 9.23674C120.968 10.3242 121.215 12.1041 121.215 14.5751C121.215 17.0461 120.968 18.826 120.476 19.9135C120.002 21.0009 119.391 21.5459 118.643 21.5459C117.914 21.5459 117.303 21.0009 116.81 19.9135C116.318 18.826 116.072 17.0461 116.072 14.5751C116.072 12.1041 116.317 10.3242 116.81 9.23674ZM103.018 26.9114C101.886 26.9114 100.875 26.8099 99.9813 26.607C99.1063 26.423 98.4133 26.1282 97.9023 25.7224C97.41 25.3344 97.1638 24.8555 97.1638 24.2835C97.1638 23.7114 97.4182 23.196 97.9292 22.7348C98.4402 22.2925 99.1973 21.9422 100.201 21.6839L100.446 22.1262C100.132 22.364 99.8718 22.6653 99.6803 23.0108C99.5345 23.3434 99.461 23.6843 99.461 24.0346C99.461 24.8095 99.8075 25.3992 100.502 25.8038C101.213 26.2284 102.17 26.4407 103.374 26.4407C104.194 26.4407 104.924 26.3299 105.563 26.1093C106.219 25.8876 106.729 25.5549 107.094 25.1138C107.478 24.6703 107.67 24.1266 107.67 23.4814C107.67 22.9282 107.469 22.4576 107.068 22.0707C106.666 21.7016 105.864 21.5176 104.66 21.5176H102.963C102.217 21.5176 101.559 21.435 100.994 21.2687C100.446 21.1036 100.017 20.8441 99.7072 20.4938C99.398 20.1258 99.2428 19.6646 99.2428 19.1114C99.2428 18.3365 99.5438 17.6547 100.146 17.0638C100.617 16.6015 101.268 16.1615 102.099 15.7451C101.553 15.6765 101.016 15.5439 100.5 15.35C99.6803 15.0363 99.0328 14.5562 98.5592 13.911C98.0843 13.2659 97.8475 12.4367 97.8475 11.4223C97.8475 10.408 98.0843 9.57761 98.5592 8.93243C99.0328 8.26838 99.6803 7.78833 100.502 7.49346C101.322 7.18089 102.252 7.02402 103.291 7.02402C104.332 7.02402 105.262 7.18089 106.082 7.49464C106.623 7.68807 107.087 7.96289 107.478 8.31674C107.71 7.97823 107.993 7.67628 108.325 7.41089C108.946 6.93202 109.612 6.69141 110.323 6.69141C110.906 6.69141 111.345 6.85771 111.636 7.19033C111.947 7.50289 112.102 7.91807 112.102 8.43469C112.102 8.98787 111.955 9.40187 111.663 9.67905C111.371 9.93853 111.044 10.0671 110.678 10.0671C110.357 10.0628 110.048 9.94514 109.803 9.73448C109.547 9.51274 109.402 9.1813 109.366 8.739C109.334 8.34269 109.444 7.85202 109.695 7.26464C109.163 7.49346 108.752 7.75412 108.463 8.04782C108.245 8.26043 108.054 8.50022 107.896 8.76141C107.94 8.81684 107.983 8.87464 108.024 8.93243C108.499 9.57761 108.736 10.4068 108.736 11.4211C108.736 12.4355 108.499 13.2659 108.024 13.911C107.551 14.5562 106.903 15.0363 106.082 15.35C105.262 15.6626 104.332 15.8195 103.291 15.8195C103.136 15.8196 102.98 15.8161 102.824 15.8088C102.578 15.9775 102.341 16.1568 102.115 16.3455C101.975 16.4567 101.862 16.5997 101.786 16.7629C101.71 16.9262 101.673 17.1052 101.678 17.2856C101.678 17.8753 102.043 18.1702 102.772 18.1702H105.754C106.757 18.1702 107.651 18.2905 108.435 18.5299C109.238 18.7705 109.866 19.1668 110.323 19.72C110.797 20.2543 111.034 20.9549 111.034 21.8219C111.034 22.7254 110.743 23.564 110.159 24.3389C109.593 25.1138 108.718 25.7307 107.532 26.1919C106.347 26.6719 104.842 26.9114 103.018 26.9114ZM103.291 15.3217C103.785 15.3217 104.166 15.0457 104.44 14.4925C104.714 13.9205 104.851 12.8967 104.851 11.4223C104.851 9.94679 104.714 8.93243 104.44 8.37925C104.167 7.8072 103.785 7.52177 103.292 7.52177C102.817 7.52177 102.435 7.8072 102.143 8.37925C101.869 8.93243 101.732 9.94679 101.732 11.4223C101.732 12.8967 101.869 13.9205 102.143 14.4925C102.435 15.0457 102.817 15.3217 103.291 15.3217ZM93.6218 7.77064C92.6185 7.27289 91.4518 7.02402 90.1207 7.02402C88.8257 7.02402 87.6672 7.27289 86.6463 7.77064C85.643 8.26838 84.8497 9.07043 84.2663 10.1768C83.7005 11.2832 83.417 12.7493 83.417 14.5751C83.417 16.4009 83.7005 17.8659 84.2652 18.9734C84.8485 20.0609 85.6418 20.8535 86.6452 21.3513C87.6672 21.849 88.8257 22.099 90.1207 22.099C91.4518 22.099 92.6197 21.849 93.6218 21.3513C94.6252 20.8535 95.4092 20.0609 95.975 18.9734C96.5408 17.867 96.8232 16.4009 96.8232 14.5751C96.8232 12.7493 96.5408 11.2843 95.975 10.1768C95.4103 9.07043 94.6252 8.26838 93.6218 7.77064ZM88.2867 9.23674C88.7802 8.13038 89.3903 7.5772 90.1207 7.5772C90.8673 7.5772 91.4787 8.13038 91.9523 9.23674C92.4458 10.3242 92.692 12.1041 92.692 14.5751C92.692 17.0461 92.4458 18.826 91.9535 19.9135C91.4787 21.0009 90.8685 21.5459 90.1207 21.5459C89.3903 21.5459 88.779 21.0009 88.2867 19.9135C87.7943 18.826 87.5482 17.0461 87.5482 14.5751C87.5482 12.1041 87.7943 10.3242 88.2867 9.23674Z" fill="#0E384C"/>
<path d="M76.0477 2.125V2.67936C75.4282 2.69705 74.9533 2.77018 74.6255 2.89992C74.4754 2.95129 74.3398 3.03846 74.2302 3.15405C74.1205 3.26964 74.04 3.41025 73.9955 3.56397C73.887 3.87654 73.8322 4.37546 73.8322 5.05721V19.1084C73.8322 19.6793 73.8683 20.1039 73.9418 20.3811C74.0328 20.6571 74.1973 20.8411 74.4342 20.9343C74.6897 21.0263 75.0642 21.0723 75.5553 21.0723H76.897C77.5153 21.0723 78.0998 20.9248 78.647 20.63C79.1953 20.3351 79.6865 19.9199 80.124 19.3844C80.5855 18.7897 80.9548 18.1275 81.2195 17.4206C81.5112 16.6657 81.7293 15.8259 81.8752 14.9036H82.5052C82.4503 15.5311 82.4235 16.3425 82.4235 17.338C82.4235 17.7626 82.4317 18.3795 82.4503 19.191C82.469 20.0025 82.5227 20.8423 82.6137 21.708C81.5657 21.669 80.517 21.6505 79.4683 21.6526C78.3017 21.6349 77.261 21.6255 76.3487 21.6255H74.5987C73.887 21.6255 73.1205 21.6349 72.3003 21.6526C71.479 21.6526 70.6495 21.662 69.8107 21.6809C68.9707 21.6809 68.1773 21.6903 67.4307 21.708V21.1548C68.014 21.1183 68.4515 21.044 68.7432 20.9343C69.0348 20.8234 69.2262 20.6017 69.3183 20.2702C69.4268 19.9376 69.4817 19.4399 69.4817 18.7758V5.05721C69.4817 4.37428 69.4268 3.87772 69.3183 3.56397C69.2824 3.41054 69.2082 3.26896 69.1028 3.15272C68.9975 3.03648 68.8644 2.94945 68.7163 2.89992C68.4247 2.77018 67.9953 2.69705 67.4307 2.67818V2.125C68.8709 2.17895 70.312 2.20647 71.7532 2.20756C72.5558 2.20756 73.3398 2.19931 74.1052 2.18044C74.8903 2.16156 75.5378 2.14387 76.0477 2.125Z" fill="#0E384C"/>
<path fill-rule="evenodd" clip-rule="evenodd" d="M198.182 44.5656C198.144 44.3675 198.17 44.1092 198.262 43.7907L202.115 29.6758C201.498 29.9316 200.86 30.1309 200.208 30.2714C199.539 30.4047 198.773 30.4767 197.907 30.4908L197.769 30.9083C198.412 30.9083 198.812 31.0145 198.97 31.2268C199.126 31.4391 199.146 31.7694 199.028 32.2199L198.116 35.6982C198.059 35.5304 197.96 35.3802 197.829 35.2618C197.606 35.0495 197.298 34.9434 196.905 34.9434C196.119 34.9434 195.391 35.1227 194.722 35.48C194.05 35.8515 193.445 36.3357 192.932 36.9119C192.394 37.4959 191.938 38.1515 191.576 38.8604C191.218 39.5504 190.935 40.2767 190.73 41.0272C190.543 41.6736 190.444 42.3425 190.435 43.0158C190.435 43.6515 190.534 44.1752 190.73 44.5857C190.927 44.9832 191.195 45.2816 191.536 45.4797C191.877 45.6661 192.257 45.7581 192.677 45.7581C193.319 45.7581 193.896 45.567 194.407 45.1825C194.918 44.785 195.396 44.1752 195.843 43.3531C196.03 43.0181 196.218 42.6419 196.404 42.2243L196.275 42.7174C196.156 43.1057 196.078 43.5053 196.039 43.9098C196.014 44.2542 196.039 44.5468 196.119 44.785C196.275 45.4337 196.76 45.7593 197.573 45.7593C197.874 45.7593 198.182 45.6991 198.497 45.58C198.812 45.4609 199.106 45.2556 199.382 44.9631C199.671 44.6718 199.9 44.2554 200.07 43.7105L200.543 42.2597H200.169L199.854 43.1538C199.619 43.8308 199.396 44.2873 199.186 44.5255C198.989 44.752 198.786 44.864 198.576 44.864C198.353 44.864 198.222 44.765 198.182 44.5656ZM197.134 39.4467C196.985 39.9314 196.824 40.3926 196.649 40.8278C196.322 41.6771 195.974 42.406 195.606 43.0158C195.253 43.6114 194.905 44.075 194.565 44.4076C194.224 44.7249 193.922 44.8841 193.66 44.8841C193.411 44.8841 193.228 44.765 193.11 44.5267C193.005 44.2743 192.952 43.8969 192.952 43.3932C192.952 42.6773 193.03 41.9483 193.188 41.2064C193.345 40.4516 193.561 39.7285 193.837 39.0397C194.09 38.3933 194.406 37.7738 194.78 37.1903C195.135 36.6336 195.508 36.196 195.902 35.8775C196.308 35.5591 196.708 35.401 197.101 35.401C197.363 35.401 197.573 35.4942 197.731 35.6794C197.841 35.7997 197.925 35.9742 197.983 36.2054L197.134 39.4467Z" fill="#0E384C"/>
<path d="M185.097 45.4817H182.679L185.038 36.9139C185.157 36.5164 185.195 36.2381 185.157 36.0788C185.117 35.9196 184.999 35.8406 184.802 35.8406C184.554 35.8406 184.324 35.9668 184.114 36.218C183.904 36.4692 183.688 36.9139 183.465 37.5508L183.13 38.4838H182.757L183.268 36.9929C183.452 36.4622 183.681 36.0529 183.956 35.7604C184.232 35.4561 184.534 35.2438 184.862 35.1246C185.189 35.0055 185.523 34.9453 185.864 34.9453C186.284 34.9453 186.592 35.0314 186.788 35.2048C186.998 35.377 187.13 35.6023 187.182 35.8807C187.248 36.1807 187.261 36.4902 187.221 36.7948C187.195 37.1132 187.142 37.4246 187.063 37.7289L186.747 38.9757L186.827 38.7633C187.195 37.8221 187.548 37.0731 187.889 36.5164C188.244 35.9467 188.617 35.5422 189.01 35.3039C189.395 35.0672 189.838 34.9431 190.289 34.9453C190.76 34.9453 191.121 35.0845 191.37 35.3629C191.633 35.6412 191.764 35.9856 191.764 36.3973C191.764 36.7275 191.684 37.0401 191.528 37.3314C191.375 37.6048 191.159 37.8367 190.898 38.0073C190.649 38.1665 190.361 38.2455 190.033 38.2455C189.706 38.2455 189.443 38.1594 189.246 37.9872C189.063 37.815 188.971 37.5626 188.971 37.2324C188.971 36.9399 189.037 36.6757 189.168 36.4362C189.294 36.2031 189.468 36 189.679 35.8406C189.889 35.6684 190.119 35.5492 190.367 35.482C190.34 35.4547 190.306 35.4345 190.269 35.423C190.224 35.409 190.178 35.4022 190.131 35.403C189.843 35.403 189.548 35.5091 189.246 35.7214C188.945 35.9196 188.63 36.2451 188.302 36.6957C187.974 37.1463 187.641 37.7419 187.3 38.4838C186.915 39.3611 186.574 40.257 186.277 41.1683C186.129 41.6094 185.979 42.0836 185.83 42.592L185.097 45.4817Z" fill="#0E384C"/>
<path fill-rule="evenodd" clip-rule="evenodd" d="M177.75 42.4083L177.667 42.7174C177.543 43.1663 177.457 43.6253 177.411 44.0891C177.372 44.5137 177.437 44.8711 177.607 45.1624C177.87 45.5599 178.316 45.7593 178.944 45.7593C179.247 45.7593 179.548 45.6991 179.85 45.58C180.164 45.4609 180.459 45.2556 180.734 44.9631C181.009 44.6588 181.239 44.2342 181.422 43.6916L181.915 42.2409H181.54L181.245 43.1349C181.009 43.8237 180.781 44.2814 180.558 44.5066C180.335 44.7308 180.118 44.844 179.908 44.844C179.738 44.844 179.627 44.7909 179.574 44.6848C179.533 44.5497 179.52 44.4077 179.535 44.2672C179.56 44.0987 179.6 43.9326 179.653 43.7707L182.19 34.9434C181.795 35.0388 181.394 35.1054 180.99 35.1427C180.584 35.1828 180.145 35.2088 179.672 35.2217L179.388 36.2856C179.376 36.0155 179.298 35.7525 179.161 35.5201C179.059 35.339 178.909 35.1895 178.729 35.0878C178.549 34.9862 178.345 34.9362 178.138 34.9434C177.562 34.9434 176.986 35.1227 176.408 35.48C175.795 35.87 175.244 36.3529 174.776 36.9119C174.247 37.5216 173.785 38.188 173.399 38.8994C173.012 39.6127 172.703 40.366 172.475 41.1463C172.261 41.8484 172.148 42.5782 172.142 43.313C172.142 44.0561 172.312 44.6517 172.653 45.1023C172.993 45.5399 173.517 45.7581 174.225 45.7581C174.723 45.7581 175.202 45.613 175.661 45.3217C176.133 45.0292 176.578 44.5456 176.998 43.8709C177.259 43.464 177.508 42.9769 177.75 42.4083ZM176.055 44.4264C175.752 44.7048 175.484 44.844 175.248 44.844C175.051 44.844 174.901 44.7449 174.796 44.5456C174.704 44.3333 174.658 43.983 174.658 43.4923C174.658 42.7893 174.736 42.0675 174.894 41.3256C175.051 40.5825 175.261 39.8677 175.524 39.1789C175.799 38.4889 176.1 37.8732 176.428 37.3295C176.756 36.7869 177.084 36.3552 177.411 36.0368C177.752 35.7183 178.073 35.5602 178.375 35.5602C178.689 35.5602 178.912 35.7195 179.044 36.0368C179.174 36.3245 179.208 36.7102 179.145 37.1927L178.564 39.3653L178.631 39.0197C178.421 39.8677 178.171 40.6497 177.883 41.3657C177.632 42.0057 177.329 42.6239 176.979 43.2139C176.664 43.7306 176.356 44.1351 176.055 44.4264ZM169.498 43.7907C169.406 44.1092 169.38 44.3675 169.42 44.5656C169.458 44.765 169.59 44.864 169.813 44.864C170.023 44.864 170.226 44.752 170.422 44.5267C170.632 44.2873 170.855 43.8308 171.09 43.1538L171.405 42.2597H171.779L171.307 43.7105C171.137 44.2542 170.907 44.6718 170.619 44.9631C170.374 45.234 170.071 45.445 169.734 45.58C169.439 45.6957 169.126 45.7565 168.81 45.7593C167.998 45.7593 167.512 45.4337 167.355 44.785C167.272 44.5014 167.245 44.2039 167.277 43.9098C167.302 43.5654 167.38 43.1668 167.512 42.7174L167.642 42.2243C167.454 42.6419 167.266 43.0181 167.079 43.3531C166.634 44.1752 166.155 44.785 165.644 45.1813C165.146 45.5618 164.537 45.765 163.913 45.7593C163.494 45.7593 163.114 45.6649 162.773 45.4809C162.422 45.2708 162.141 44.959 161.967 44.5857C161.77 44.1752 161.672 43.6515 161.672 43.0158C161.672 42.406 161.77 41.7419 161.967 41.0272C162.163 40.2982 162.445 39.5764 162.812 38.8604C163.174 38.1517 163.631 37.4962 164.169 36.9119C164.706 36.3151 165.303 35.8386 165.958 35.48C166.631 35.1213 167.381 34.9369 168.141 34.9434C168.534 34.9434 168.842 35.0495 169.065 35.2618C169.193 35.3762 169.29 35.5213 169.353 35.6982L170.264 32.2199C170.383 31.7694 170.364 31.4379 170.206 31.2256C170.049 31.0133 169.648 30.9072 169.007 30.9072L169.144 30.4908C169.916 30.4863 170.686 30.4129 171.445 30.2714C172.097 30.1309 172.736 29.9316 173.353 29.6758L169.498 43.7907ZM167.886 40.8278C168.061 40.3914 168.223 39.9314 168.37 39.4467L169.22 36.2054C169.179 36.0119 169.092 35.8314 168.967 35.6794C168.89 35.588 168.793 35.5155 168.684 35.4673C168.575 35.4191 168.457 35.3964 168.338 35.401C167.945 35.401 167.545 35.5602 167.139 35.8775C166.745 36.196 166.371 36.6336 166.018 37.1903C165.643 37.7732 165.327 38.3923 165.074 39.0385C164.794 39.7403 164.577 40.4658 164.425 41.2064C164.27 41.9249 164.191 42.6579 164.188 43.3932C164.188 43.8969 164.241 44.2743 164.346 44.5255C164.464 44.765 164.648 44.8841 164.897 44.8841C165.159 44.8841 165.46 44.7249 165.801 44.4064C166.143 44.0761 166.489 43.6114 166.844 43.0146C167.252 42.3172 167.601 41.5856 167.886 40.8278Z" fill="#0E384C"/>
<path d="M150.843 45.4817H153.261L153.489 44.5829L153.477 44.6478C153.727 43.7195 154.008 42.8255 154.323 41.9633C154.629 41.1404 154.97 40.3313 155.345 39.5382C155.7 38.7952 156.053 38.1464 156.408 37.5897C156.761 37.033 157.102 36.6025 157.43 36.297C157.758 35.9785 158.059 35.8205 158.334 35.8205C158.557 35.8205 158.694 35.8995 158.747 36.0587C158.801 36.2394 158.808 36.4313 158.767 36.6155C158.728 36.8309 158.675 37.0436 158.609 37.2524L156.821 42.7193C156.636 43.276 156.531 43.7525 156.506 44.15C156.479 44.5475 156.551 44.8731 156.722 45.1243C156.853 45.3236 157.037 45.4758 157.272 45.5819C157.522 45.6999 157.817 45.7612 158.158 45.7612C158.472 45.7612 158.787 45.7011 159.102 45.5819C159.429 45.4758 159.73 45.2764 160.006 44.9851C160.294 44.6938 160.531 44.2692 160.714 43.7124L161.205 42.2617H160.832L160.517 43.1557C160.268 43.8457 160.033 44.3022 159.81 44.5275C159.6 44.7539 159.397 44.866 159.2 44.866C158.99 44.866 158.859 44.7799 158.806 44.6065C158.754 44.4225 158.787 44.15 158.904 43.7926L160.832 37.9471C161.002 37.4305 161.087 36.9469 161.087 36.4963C161.1 36.0328 160.976 35.6613 160.714 35.3829C160.464 35.0916 160.019 34.9465 159.377 34.9465C158.892 34.9465 158.426 35.0526 157.98 35.2638C157.535 35.4761 157.102 35.8464 156.683 36.3772C156.263 36.8938 155.83 37.5968 155.385 38.4838C155.089 39.0821 154.818 39.6924 154.571 40.3132L155.227 37.7289C155.306 37.4104 155.365 37.092 155.404 36.7747C155.444 36.4444 155.43 36.1449 155.365 35.8795C155.302 35.6054 155.141 35.3646 154.913 35.2036C154.69 35.0314 154.363 34.9453 153.93 34.9453C153.405 34.9453 152.926 35.0916 152.494 35.3829C152.062 35.6742 151.707 36.2109 151.432 36.9929L150.921 38.4838H151.294L151.629 37.5496C151.865 36.9009 152.081 36.4562 152.278 36.218C152.488 35.9667 152.716 35.8405 152.966 35.8405C153.149 35.8405 153.261 35.8936 153.301 35.9998C153.352 36.1059 153.366 36.238 153.339 36.3973C153.31 36.5716 153.271 36.7441 153.222 36.9139L150.843 45.4817Z" fill="#0E384C"/>
<path fill-rule="evenodd" clip-rule="evenodd" d="M145.831 42.7193L145.914 42.4103C145.704 42.9179 145.453 43.4071 145.163 43.8729C144.743 44.5475 144.297 45.0323 143.825 45.3236C143.366 45.615 142.888 45.76 142.39 45.76C141.681 45.76 141.158 45.5418 140.817 45.1042C140.475 44.6537 140.305 44.058 140.305 43.315C140.305 42.6261 140.417 41.9043 140.64 41.1482C140.867 40.368 141.177 39.6147 141.564 38.9013C141.949 38.1897 142.41 37.5232 142.94 36.9139C143.408 36.3548 143.959 35.8719 144.572 35.482C145.149 35.1246 145.726 34.9453 146.303 34.9453C146.748 34.9453 147.089 35.1376 147.326 35.5233C147.452 35.7202 147.528 35.975 147.552 36.2876L147.837 35.2237C148.308 35.2107 148.748 35.1847 149.154 35.1446C149.574 35.1045 149.973 35.0385 150.353 34.9453L147.817 43.7738C147.763 43.9356 147.724 44.1017 147.699 44.2703C147.684 44.4108 147.698 44.5529 147.739 44.6879C147.791 44.794 147.902 44.8471 148.072 44.8471C148.282 44.8471 148.498 44.7351 148.721 44.5098C148.944 44.2845 149.174 43.8257 149.409 43.138L149.705 42.2428H150.078L149.587 43.6936C149.404 44.2373 149.174 44.6607 148.898 44.9674C148.653 45.2376 148.351 45.4481 148.014 45.5831C147.726 45.6998 147.419 45.7606 147.109 45.7624C146.48 45.7624 146.034 45.5631 145.772 45.1656C145.601 44.8742 145.536 44.5169 145.576 44.0922C145.621 43.6284 145.707 43.1682 145.831 42.7193ZM143.412 44.8459C143.648 44.8459 143.917 44.7067 144.219 44.4284C144.52 44.1371 144.828 43.7325 145.143 43.2159C145.457 42.6993 145.759 42.0836 146.047 41.3676C146.335 40.6517 146.585 39.8697 146.795 39.0204L146.728 39.3672L147.309 37.1958C147.371 36.7122 147.337 36.3265 147.208 36.0399C147.076 35.7214 146.853 35.5622 146.538 35.5622C146.237 35.5622 145.916 35.7214 145.576 36.0387C145.248 36.3572 144.92 36.7877 144.592 37.3314C144.264 37.874 143.962 38.4909 143.687 39.1797C143.423 39.8777 143.212 40.5954 143.058 41.3263C142.904 42.0385 142.825 42.7652 142.822 43.4942C142.822 43.9849 142.868 44.3364 142.96 44.5475C143.065 44.7468 143.216 44.8459 143.412 44.8459Z" fill="#0E384C"/>
<path d="M141.669 35.6216L141.728 35.2241H139.386L140.312 31.964C139.924 32.0605 139.53 32.1271 139.132 32.1633C138.726 32.2022 138.287 32.2294 137.815 32.2423L136.969 35.2241H135.18L135.082 35.6216H136.857L134.845 42.7197C134.675 43.3024 134.616 43.8261 134.669 44.2896C134.734 44.7402 134.917 45.0988 135.219 45.363C135.533 45.6283 135.986 45.7616 136.576 45.7616C137.245 45.7616 137.821 45.5823 138.306 45.2238C138.792 44.8664 139.172 44.2767 139.447 43.4545L139.841 42.2621H139.466L139.172 43.0771C138.935 43.74 138.674 44.2035 138.385 44.4689C138.109 44.7343 137.834 44.8664 137.559 44.8664C137.45 44.87 137.343 44.8485 137.244 44.8035C137.145 44.7585 137.058 44.6913 136.989 44.6069C136.857 44.4359 136.845 44.1646 136.95 43.7931L139.272 35.6216H141.669ZM135.156 31.2681C135.026 31.6125 134.848 32.1173 134.626 32.779C134.416 33.4277 134.207 34.277 133.997 35.3232H133.604C133.642 35.138 133.669 34.9457 133.682 34.7476C133.707 34.5698 133.72 34.3905 133.721 34.2109C133.721 33.6931 133.616 33.2437 133.406 32.8592C133.205 32.456 132.881 32.1283 132.482 31.9239C132.076 31.6856 131.551 31.5665 130.91 31.5665C130.214 31.5665 129.624 31.7517 129.14 32.1232C128.655 32.4806 128.412 33.0574 128.412 33.8523C128.412 34.343 128.523 34.8077 128.746 35.2441C128.982 35.6688 129.278 36.0863 129.631 36.4968C129.999 36.8942 130.385 37.2988 130.791 37.7093C131.198 38.1068 131.578 38.5184 131.932 38.9418C132.285 39.3664 132.575 39.817 132.797 40.2935C133.033 40.7582 133.151 41.2678 133.151 41.8245C133.151 42.5275 132.981 43.1302 132.64 43.6338C132.308 44.1286 131.871 44.5427 131.361 44.8463C130.827 45.1552 130.251 45.3829 129.651 45.5222C129.074 45.6781 128.479 45.7586 127.881 45.7616C127.291 45.7616 126.8 45.7144 126.406 45.6224C126.07 45.5585 125.746 45.4444 125.443 45.2839C125.185 45.1412 124.929 44.9958 124.675 44.8475C124.559 44.7493 124.426 44.6748 124.282 44.6281C124.19 44.5816 124.09 44.5543 123.988 44.5479C123.816 44.5479 123.673 44.634 123.555 44.8074C123.4 45.0664 123.269 45.3387 123.162 45.6213H122.768C123.092 44.8128 123.362 43.9829 123.575 43.1373C123.731 42.5275 123.909 41.7655 124.106 40.8502H124.499C124.444 41.1136 124.398 41.3787 124.361 41.6452C124.322 41.9106 124.309 42.176 124.322 42.4414C124.361 43.3684 124.642 44.0844 125.167 44.588C125.705 45.0917 126.492 45.3429 127.526 45.3429C128.405 45.3429 129.068 45.1577 129.513 44.7874C129.959 44.4029 130.182 43.8461 130.182 43.1172C130.182 42.5605 130.077 42.0557 129.867 41.6063C129.669 41.1388 129.404 40.7033 129.08 40.3136C128.747 39.9103 128.4 39.5192 128.039 39.1412C127.677 38.7631 127.329 38.3716 126.996 37.9676C126.674 37.5662 126.403 37.1255 126.189 36.656C125.975 36.154 125.868 35.6117 125.876 35.0649C125.876 34.4032 126.013 33.8264 126.289 33.3357C126.566 32.8571 126.941 32.4438 127.389 32.1232C127.848 31.7918 128.36 31.5428 128.903 31.3872C129.431 31.2186 129.981 31.1315 130.535 31.1289C131.243 31.1289 131.827 31.215 132.285 31.3884C132.745 31.5594 133.138 31.7658 133.466 32.0041L133.839 32.2423C133.957 32.2954 134.049 32.3214 134.115 32.3214C134.298 32.3214 134.515 31.9711 134.763 31.2681H135.156Z" fill="#0E384C"/>
<path fill-rule="evenodd" clip-rule="evenodd" d="M116.175 44.5656C116.135 44.3675 116.162 44.1092 116.254 43.7907L120.107 29.6758C119.49 29.9316 118.852 30.1309 118.2 30.2714C117.531 30.4047 116.765 30.4767 115.899 30.4908L115.762 30.9083C116.403 30.9083 116.805 31.0145 116.961 31.2268C117.118 31.4391 117.138 31.7694 117.02 32.2199L116.108 35.6982C116.051 35.5304 115.952 35.3802 115.821 35.2618C115.598 35.0495 115.29 34.9434 114.897 34.9434C114.11 34.9434 113.383 35.1227 112.714 35.48C112.042 35.8514 111.437 36.3356 110.925 36.9119C110.387 37.4959 109.93 38.1515 109.568 38.8604C109.211 39.5503 108.927 40.2767 108.722 41.0272C108.535 41.6735 108.436 42.3425 108.427 43.0158C108.427 43.6515 108.526 44.1752 108.722 44.5857C108.919 44.9832 109.187 45.2816 109.528 45.4797C109.869 45.6661 110.249 45.7581 110.669 45.7581C111.311 45.7581 111.888 45.567 112.399 45.1825C112.91 44.785 113.389 44.1752 113.834 43.3531C114.021 43.0181 114.209 42.6419 114.397 42.2243L114.268 42.7174C114.149 43.1056 114.07 43.5052 114.031 43.9098C114 44.2039 114.027 44.5014 114.11 44.785C114.267 45.4337 114.751 45.7593 115.566 45.7593C115.867 45.7593 116.175 45.6991 116.49 45.58C116.805 45.4609 117.099 45.2556 117.374 44.9631C117.663 44.6718 117.892 44.2554 118.062 43.7105L118.535 42.2597H118.161L117.846 43.1538C117.611 43.8308 117.388 44.2873 117.178 44.5255C116.981 44.752 116.778 44.864 116.568 44.864C116.346 44.864 116.214 44.765 116.175 44.5656ZM115.125 39.4467C114.978 39.9314 114.817 40.3926 114.64 40.8278C114.314 41.6771 113.966 42.406 113.599 43.0158C113.245 43.6114 112.897 44.075 112.557 44.4076C112.216 44.7249 111.915 44.8841 111.651 44.8841C111.403 44.8841 111.22 44.765 111.102 44.5267C110.997 44.2743 110.944 43.8969 110.944 43.3932C110.944 42.6773 111.023 41.9483 111.18 41.2064C111.338 40.4516 111.553 39.7285 111.829 39.0397C112.082 38.3932 112.399 37.7736 112.774 37.1903C113.127 36.6336 113.501 36.196 113.894 35.8775C114.3 35.5591 114.7 35.401 115.093 35.401C115.356 35.401 115.566 35.4942 115.723 35.6794C115.833 35.7997 115.917 35.9742 115.975 36.2054L115.125 39.4467Z" fill="#0E384C"/>
<path d="M100.016 45.4817H97.5977L99.9777 36.9139C100.03 36.7287 100.069 36.5565 100.094 36.3973C100.124 36.264 100.11 36.1248 100.056 35.9998C100.016 35.8936 99.9042 35.8405 99.721 35.8405C99.4725 35.8405 99.2427 35.9667 99.0327 36.218C98.8367 36.4562 98.6197 36.9009 98.384 37.5508L98.0503 38.4838H97.677L98.188 36.9929C98.4633 36.2109 98.818 35.6742 99.2497 35.3829C99.6813 35.0916 100.16 34.9465 100.685 34.9465C101.117 34.9465 101.445 35.0314 101.668 35.2036C101.897 35.3644 102.058 35.6053 102.121 35.8795C102.186 36.1449 102.199 36.4433 102.16 36.7747C102.12 37.0961 102.061 37.4147 101.983 37.7289L101.327 40.3143C101.605 39.6196 101.876 39.011 102.141 38.4838C102.586 37.5968 103.018 36.8938 103.438 36.3772C103.858 35.8464 104.29 35.4761 104.735 35.2638C105.182 35.0515 105.646 34.9453 106.132 34.9453C106.773 34.9453 107.22 35.0916 107.469 35.3829C107.731 35.6613 107.856 36.0316 107.842 36.4963C107.842 36.9469 107.758 37.4305 107.587 37.9471L105.66 43.7926C105.541 44.15 105.509 44.4225 105.561 44.6065C105.614 44.7799 105.746 44.866 105.956 44.866C106.152 44.866 106.355 44.7539 106.565 44.5286C106.787 44.3022 107.023 43.8445 107.273 43.1557L107.588 42.2617H107.961L107.469 43.7124C107.286 44.2692 107.049 44.6938 106.762 44.9863C106.515 45.259 106.203 45.464 105.856 45.5819C105.555 45.6988 105.235 45.7596 104.913 45.7612C104.572 45.7612 104.277 45.7011 104.028 45.5819C103.791 45.4758 103.608 45.3224 103.478 45.1243C103.307 44.8731 103.235 44.5475 103.261 44.15C103.287 43.7525 103.392 43.276 103.576 42.7193L105.365 37.2524C105.431 37.0401 105.483 36.8278 105.523 36.6155C105.564 36.4313 105.557 36.2394 105.503 36.0587C105.45 35.8995 105.313 35.8205 105.09 35.8205C104.815 35.8205 104.512 35.9797 104.186 36.297C103.858 36.6025 103.516 37.033 103.163 37.5897C102.77 38.217 102.416 38.8677 102.101 39.5382C101.747 40.2813 101.406 41.0881 101.078 41.9633C100.763 42.8243 100.483 43.7195 100.233 44.6478L100.245 44.5829L100.016 45.4817Z" fill="#0E384C"/>
<path fill-rule="evenodd" clip-rule="evenodd" d="M92.6687 42.4109L92.587 42.7199C92.4632 43.169 92.3773 43.6279 92.3304 44.0917C92.2907 44.5163 92.356 44.8737 92.5264 45.165C92.7889 45.5625 93.2345 45.7618 93.8645 45.7618C94.2008 45.7594 94.533 45.6875 94.8407 45.5506C95.1485 45.4137 95.4253 45.2147 95.6542 44.9657C95.9295 44.6614 96.1582 44.2368 96.3425 43.6942L96.8325 42.2434H96.4592L96.1652 43.1375C95.9284 43.8263 95.6985 44.2839 95.4769 44.5092C95.254 44.7333 95.037 44.8466 94.8282 44.8466C94.6567 44.8466 94.5459 44.7935 94.4934 44.6873C94.4524 44.5523 94.4389 44.4102 94.4537 44.2698C94.4805 44.0976 94.519 43.9325 94.5727 43.7732L97.109 34.9459C96.7145 35.0413 96.3137 35.1079 95.9097 35.1453C95.5025 35.1854 95.0639 35.2113 94.5914 35.2243L94.3067 36.2882C94.2946 36.0181 94.2168 35.7552 94.0804 35.5227C93.978 35.3417 93.8288 35.1923 93.6487 35.0907C93.4686 34.9891 93.2645 34.939 93.0584 34.9459C92.4809 34.9459 91.9034 35.1252 91.327 35.4826C90.7507 35.8412 90.207 36.3177 89.6949 36.9145C89.1652 37.5239 88.7035 38.1904 88.3182 38.9019C87.9315 39.6153 87.6217 40.3686 87.3942 41.1489C87.1797 41.8509 87.0673 42.5808 87.0605 43.3156C87.0605 44.0587 87.2309 44.6543 87.5715 45.1049C87.9122 45.5425 88.4372 45.7607 89.1442 45.7607C89.6424 45.7607 90.1219 45.6156 90.5792 45.3242C91.0517 45.0317 91.4985 44.5481 91.9174 43.8735C92.1775 43.4666 92.4272 42.9794 92.6687 42.4109ZM90.9735 44.429C90.6725 44.7074 90.403 44.8466 90.1674 44.8466C89.9702 44.8466 89.8197 44.7475 89.7147 44.5481C89.6237 44.3358 89.577 43.9855 89.577 43.4949C89.577 42.7919 89.6564 42.07 89.8139 41.3281C89.9702 40.5851 90.1802 39.8703 90.4427 39.1815C90.718 38.4915 91.019 37.8758 91.3469 37.332C91.6747 36.7895 92.0025 36.3578 92.3304 36.0393C92.671 35.7209 92.9919 35.5628 93.2941 35.5628C93.6091 35.5628 93.8307 35.722 93.9625 36.0393C94.0932 36.3271 94.1259 36.7128 94.064 37.1952L93.483 39.3678L93.5495 39.0223C93.3395 39.8703 93.091 40.6523 92.8029 41.3682C92.5135 42.083 92.2125 42.6999 91.8975 43.2165C91.5825 43.7331 91.2745 44.1377 90.9735 44.429Z" fill="#0E384C"/>
<path d="M81.8013 45.4817H79.3828L81.7418 36.9139C81.8596 36.5164 81.8993 36.2381 81.8596 36.0788C81.8211 35.9196 81.7033 35.8406 81.5061 35.8406C81.2576 35.8406 81.0278 35.9668 80.8178 36.218C80.6078 36.4692 80.392 36.9139 80.1692 37.5508L79.8343 38.4838H79.461L79.972 36.9929C80.1563 36.4622 80.385 36.0529 80.6603 35.7604C80.9356 35.4561 81.2378 35.2438 81.5656 35.1246C81.8923 35.0055 82.2271 34.9453 82.569 34.9453C82.9878 34.9453 83.2958 35.0314 83.4918 35.2048C83.7004 35.374 83.8406 35.6143 83.8861 35.8807C83.9515 36.159 83.9643 36.4633 83.9246 36.7948C83.899 37.1132 83.8465 37.4246 83.7671 37.7289L83.4521 38.9757L83.4836 38.8895L83.5315 38.7633C83.899 37.8221 84.2525 37.0731 84.5931 36.5164C84.9478 35.9467 85.3211 35.5422 85.7143 35.3039C86.0996 35.0672 86.5422 34.9431 86.993 34.9453C87.4643 34.9453 87.8248 35.0845 88.0745 35.3629C88.3358 35.6412 88.4676 35.9856 88.4676 36.3973C88.4676 36.7275 88.3883 37.0401 88.2308 37.3314C88.0782 37.6047 87.8625 37.8366 87.602 38.0073C87.3421 38.1693 87.0415 38.252 86.7363 38.2455C86.4096 38.2455 86.1471 38.1594 85.95 37.9872C85.7668 37.815 85.6746 37.5626 85.6746 37.2324C85.6746 36.9399 85.74 36.6757 85.8718 36.4362C86.0025 36.198 86.1728 35.9998 86.3828 35.8406C86.5928 35.6684 86.8215 35.5492 87.0712 35.482C87.0435 35.4549 87.0099 35.4347 86.9731 35.423C86.9471 35.4141 86.92 35.4082 86.8926 35.4053C86.8733 35.4035 86.8538 35.4027 86.8343 35.403C86.5473 35.403 86.251 35.5091 85.95 35.7214C85.649 35.9196 85.334 36.2451 85.0061 36.6957C84.6795 37.1463 84.3446 37.7419 84.0028 38.4838C83.6184 39.361 83.2773 40.2569 82.9808 41.1683C82.8326 41.6083 82.6833 42.0836 82.534 42.592L81.8013 45.4817Z" fill="#0E384C"/>
<path fill-rule="evenodd" clip-rule="evenodd" d="M78.1222 32.1422C77.4666 31.6646 76.4177 31.4263 74.9757 31.4263C74.5301 31.4263 74.0844 31.4334 73.6376 31.4464C73.2059 31.4593 72.7077 31.4664 72.1442 31.4664H71.1607C70.8061 31.4522 70.4724 31.4464 70.1574 31.4464C69.8952 31.4347 69.6331 31.4213 69.3711 31.4062L69.2731 31.8037C69.7841 31.8037 70.1317 31.8698 70.3149 32.0031C70.5121 32.121 70.6031 32.3074 70.5902 32.5598C70.5638 32.8817 70.5111 33.2008 70.4327 33.514L67.8369 43.3745C67.7202 43.851 67.5884 44.2096 67.4437 44.4478C67.3131 44.6757 67.103 44.8461 66.8546 44.9255C66.6049 45.0046 66.2572 45.0576 65.8116 45.0836L65.7334 45.4811C65.9551 45.4693 66.2246 45.4622 66.5384 45.4622C66.8534 45.448 67.1882 45.4421 67.5417 45.4421C68.5314 45.4117 69.5218 45.4184 70.5109 45.4622C71.0487 45.474 71.5411 45.4822 71.9867 45.4822C72.8384 45.4822 73.6446 45.395 74.4052 45.2228C75.1063 45.062 75.777 44.7871 76.3909 44.4089C76.9401 44.0781 77.4049 43.6216 77.7477 43.0761C78.0884 42.5453 78.2587 41.9237 78.2587 41.2078C78.2587 40.3987 77.9321 39.7028 77.2764 39.1201C76.6347 38.5363 75.6174 38.1918 74.2279 38.0857C75.0948 37.9598 75.9371 37.6984 76.7246 37.3108C77.4596 36.9262 78.0359 36.4556 78.4559 35.8989C78.8787 35.3704 79.1078 34.7104 79.1046 34.0306C79.1046 33.2356 78.7791 32.6058 78.1222 32.1422ZM71.8456 38.3452L70.5307 43.3745C70.4526 43.7048 70.4001 43.9973 70.3744 44.2485C70.3604 44.5009 70.4257 44.6932 70.5704 44.8265C70.7151 44.9586 70.9834 45.0246 71.3766 45.0246C72.3076 45.0246 73.0682 44.8453 73.6574 44.4879C74.2347 44.1447 74.6946 43.6316 74.9757 43.0171C75.2639 42.3802 75.4074 41.6642 75.4074 40.8705C75.4074 40.3786 75.3222 39.9481 75.1519 39.5777C75.0019 39.2015 74.7322 38.8865 74.3854 38.6825C74.0319 38.4572 73.5594 38.3452 72.9691 38.3452H71.8456ZM71.9342 38.0067H72.8326C73.5792 38.0067 74.2151 37.8144 74.7389 37.4299C75.2767 37.0324 75.6839 36.5158 75.9592 35.88C76.246 35.2502 76.3933 34.5647 76.3909 33.8714C76.3909 33.2085 76.2602 32.699 75.9977 32.3404C75.7492 31.983 75.3094 31.8037 74.6794 31.8037C74.2221 31.8037 73.8942 31.8969 73.6971 32.0821C73.5011 32.2543 73.3307 32.6317 73.1861 33.2144L71.9342 38.0067Z" fill="#0E384C"/>
</g>
<defs>
<clipPath id="clip0_1058_376">
<rect width="203" height="46" fill="white" transform="translate(0 0.273438)"/>
</clipPath>
</defs>
</svg>
