<svg width="1964" height="675" viewBox="0 0 1964 675" fill="none" xmlns="http://www.w3.org/2000/svg">
<g clip-path="url(#clip0_722_231)">
<path d="M60 644.039C35.0649 646.844 32.8831 649.182 30.0779 674.117C27.2727 649.182 24.9351 646.844 0 644.039C24.9351 641.234 27.2727 639.052 30.0779 614.117C32.8831 639.052 35.0649 641.234 60 644.039Z" fill="#1E84B5" fill-opacity="0.1"/>
<path d="M70.1641 619.964C58.5277 621.273 57.5095 622.364 56.2004 634C54.8913 622.364 53.8004 621.273 42.1641 619.964C53.8004 618.655 54.8913 617.636 56.2004 606C57.5095 617.636 58.5277 618.655 70.1641 619.964Z" fill="#1E84B5" fill-opacity="0.1"/>
<path d="M913.5 513.938C893.552 516.182 891.807 518.052 889.562 538C887.318 518.052 885.448 516.182 865.5 513.938C885.448 511.693 887.318 509.948 889.562 490C891.807 509.948 893.552 511.693 913.5 513.938Z" fill="#1E84B5" fill-opacity="0.1"/>
<path d="M1923.4 80C1917.81 80 1913.37 75.4644 1913.37 69.9638V10.1327C1913.37 4.53559 1917.81 0 1923.4 0C1929 0 1933.54 4.53559 1933.54 10.1327V69.9638C1933.54 75.4644 1929 80 1923.4 80Z" fill="#1E84B5" fill-opacity="0.1"/>
<path d="M1883.45 40.0468C1883.45 34.4497 1887.89 29.9141 1893.49 29.9141H1953.32C1958.92 29.9141 1963.36 34.4497 1963.36 40.0468C1963.36 45.6439 1958.92 50.083 1953.32 50.083H1893.49C1887.89 50.083 1883.45 45.6439 1883.45 40.0468Z" fill="#1E84B5" fill-opacity="0.1"/>
<path d="M369.055 124.081C339.964 127.354 337.418 130.081 334.146 159.172C330.873 130.081 328.146 127.354 299.055 124.081C328.146 120.808 330.873 118.263 334.146 89.1719C337.418 118.263 339.964 120.808 369.055 124.081Z" fill="#1E84B5" fill-opacity="0.1"/>
<path d="M1615.05 511.734C1610.86 511.734 1607.45 508.325 1607.45 504.137V459.332C1607.45 455.144 1610.86 451.734 1615.05 451.734C1619.14 451.734 1622.55 455.144 1622.55 459.332V504.137C1622.55 508.325 1619.14 511.734 1615.05 511.734Z" fill="#1E84B5" fill-opacity="0.1"/>
<path d="M1585.05 481.738C1585.05 477.55 1588.46 474.141 1592.55 474.141H1637.45C1641.64 474.141 1644.95 477.55 1644.95 481.738C1644.95 485.926 1641.64 489.336 1637.45 489.336H1592.55C1588.46 489.336 1585.05 485.926 1585.05 481.738Z" fill="#1E84B5" fill-opacity="0.1"/>
</g>
<defs>
<clipPath id="clip0_722_231">
<rect width="1964" height="675" fill="white"/>
</clipPath>
</defs>
</svg>
