<svg width="48" height="48" viewBox="0 0 48 48" fill="none" xmlns="http://www.w3.org/2000/svg">
<g clip-path="url(#clip0_107_939)">
<path fill-rule="evenodd" clip-rule="evenodd" d="M3.89328 0.85303C2.36266 1.22618 1.06915 2.55898 0.738587 4.10356C0.666986 4.43797 0.634949 6.43217 0.635867 10.4834C0.637335 16.8928 0.651839 17.1026 1.15479 17.982C1.48077 18.5519 2.23974 19.3171 2.79677 19.6373C3.55501 20.0732 4.1728 20.1865 5.79191 20.1865H7.239L8.91668 22.4125L10.5945 24.6386L10.9802 24.6666L11.3658 24.6946L13.0456 22.4446L14.7253 20.1944L29.3247 20.1905C45.2896 20.1861 44.4867 20.2125 45.4314 19.6598C46.4542 19.0614 47.3838 17.7879 47.5157 16.8045C47.5438 16.5945 47.6027 16.4228 47.6466 16.4228C47.6909 16.4228 47.7256 13.7207 47.7249 10.3412C47.7241 6.99644 47.6887 4.3146 47.6462 4.3817C47.5943 4.46349 47.5522 4.38042 47.5186 4.12954C47.3842 3.12693 46.4273 1.81451 45.4517 1.29457C44.3154 0.688897 45.4351 0.725524 28.0625 0.725524C12.4151 0.725524 12.2912 0.726993 12.1091 0.909118C11.8928 1.12539 11.8657 1.61843 12.0558 1.8784C12.1836 2.05327 12.4809 2.0574 28.1432 2.10248L44.1003 2.14838L44.6258 2.40642C45.2031 2.68989 45.6741 3.17935 45.9999 3.83413L46.2116 4.2597V10.456V16.6523L45.9541 17.1768C45.6381 17.8203 45.0293 18.3735 44.3629 18.6229C43.8688 18.8077 43.7202 18.8095 29.0492 18.8095H14.2345L13.9751 19.0311C13.8323 19.153 13.1166 20.0601 12.3845 21.0469C11.6524 22.0337 11.0266 22.8324 10.994 22.8219C10.9613 22.8113 10.3183 21.9765 9.56522 20.9667C8.81203 19.957 8.12007 19.0688 8.02744 18.9931C7.89452 18.8844 7.46051 18.8455 5.96789 18.8083C4.14315 18.7629 4.06053 18.7526 3.6121 18.5171C3.05719 18.2257 2.52293 17.6592 2.25351 17.0766C2.05927 16.6564 2.05734 16.5914 2.05734 10.456V4.2597L2.31254 3.74004C2.60638 3.14171 3.13531 2.62618 3.74438 2.34455C4.13801 2.1626 4.36016 2.14507 6.81536 2.10248C9.30048 2.05942 9.47012 2.04566 9.59221 1.8784C9.79297 1.60356 9.75423 1.15458 9.50996 0.92509C9.30223 0.72993 9.24256 0.725708 6.8249 0.733327C5.21883 0.738376 4.19144 0.780327 3.89328 0.85303ZM0.677818 10.456C0.677818 13.8135 0.689292 15.1869 0.703337 13.5082C0.71729 11.8295 0.71729 9.08244 0.703337 7.40375C0.689292 5.72497 0.677818 7.09852 0.677818 10.456ZM10.408 5.4258C10.2464 5.55294 9.937 6.07811 9.57514 6.83975C9.25844 7.50619 8.96496 8.07267 8.92292 8.09865C8.88088 8.12463 8.26905 8.23267 7.56323 8.33879C6.06024 8.5647 5.81229 8.64897 5.6331 8.9956C5.32825 9.58512 5.4407 9.79643 6.70327 11.0068L7.70872 11.9706L7.47629 13.251C7.17006 14.938 7.17373 15.0903 7.52899 15.4221C7.97071 15.8347 8.24537 15.7846 9.6919 15.0278L10.9544 14.3672L12.2432 15.0308C12.952 15.3957 13.6276 15.693 13.7446 15.6914C14.2292 15.6846 14.6741 15.2651 14.6774 14.8116C14.6785 14.6575 14.5754 13.9553 14.4484 13.251L14.2173 11.9706L15.2229 11.0068C16.4657 9.81571 16.5785 9.61137 16.3139 9.03057C16.1469 8.66393 15.8338 8.55378 14.3298 8.33218L12.9465 8.12839L12.369 6.89593C12.014 6.13824 11.6909 5.57864 11.5302 5.44352C11.198 5.1639 10.7499 5.15693 10.408 5.4258ZM23.6296 5.39229C23.4208 5.51962 23.2022 5.87459 22.7254 6.86068C22.3796 7.57587 22.0627 8.16107 22.0213 8.16107C21.5925 8.16107 19.2645 8.57471 19.1009 8.68C18.8323 8.85294 18.6197 9.34736 18.6887 9.63827C18.7176 9.7599 19.2158 10.3397 19.7959 10.9268L20.8506 11.9942L20.6105 13.4218C20.3485 14.9796 20.3639 15.1581 20.7894 15.4928C21.1904 15.8082 21.4924 15.7397 22.8625 15.0229L24.1345 14.3574L25.4065 15.0229C26.8394 15.7726 27.1019 15.8232 27.538 15.4335C27.8952 15.1143 27.902 14.9404 27.6226 13.2752L27.4102 12.0093L28.4803 10.9258C29.5069 9.88639 29.5505 9.82645 29.5505 9.45357C29.5505 8.83192 29.233 8.58297 28.2631 8.4439C27.8352 8.38248 27.1818 8.28821 26.8111 8.23432L26.1371 8.13629L25.4826 6.80936C24.9921 5.81502 24.7652 5.45013 24.5776 5.3531C24.2409 5.17896 23.9603 5.19052 23.6296 5.39229ZM36.775 5.40863C36.6207 5.53026 36.2631 6.12024 35.8793 6.8861C35.5281 7.58734 35.2037 8.16107 35.1587 8.16107C34.9957 8.16107 32.5299 8.53606 32.3669 8.58563C32.1247 8.65934 31.8464 9.16588 31.8439 9.53802C31.8418 9.8293 31.9441 9.95818 32.9371 10.9164L34.0325 11.9734L33.8115 13.2113C33.5171 14.861 33.5217 15.0839 33.8579 15.4201C34.2741 15.8363 34.5511 15.7864 36.0266 15.0293L37.3161 14.3676L38.5714 15.028C39.8732 15.7129 40.1239 15.7794 40.5578 15.555C41.0527 15.2991 41.0852 15.0165 40.8054 13.4071L40.5556 11.9706L41.561 11.0068C42.8389 9.78165 42.955 9.5595 42.6164 8.98632C42.4013 8.62226 42.2119 8.55855 40.6712 8.33154L39.3065 8.1305L38.6741 6.85443C38.3263 6.15255 37.9726 5.51567 37.8882 5.43911C37.6177 5.19374 37.0667 5.17859 36.775 5.40863ZM10.449 8.18402C10.1913 8.70157 9.89147 9.1948 9.78269 9.28026C9.66042 9.37628 9.17233 9.49653 8.50525 9.59494L7.42571 9.7543L8.25271 10.5976C9.19143 11.5548 9.17711 11.5084 8.94211 12.8427C8.72987 14.0476 8.67498 14.0074 9.75322 13.4367C10.2865 13.1545 10.8193 12.9353 10.9695 12.9364C11.1167 12.9375 11.6604 13.1612 12.1779 13.4336C13.2454 13.9953 13.1912 14.0352 12.9812 12.8427C12.7462 11.5084 12.7318 11.5548 13.6706 10.5976L14.4976 9.7543L13.418 9.59494C12.7509 9.49653 12.2629 9.37628 12.1406 9.28026C12.0318 9.1948 11.732 8.70157 11.4743 8.18402C11.2166 7.66647 10.986 7.2431 10.9616 7.2431C10.9373 7.2431 10.7066 7.66647 10.449 8.18402ZM23.607 8.2033C23.3444 8.73141 23.0322 9.2272 22.9133 9.30514C22.7944 9.38307 22.2125 9.51572 21.6204 9.5999L20.5435 9.7531L21.3658 10.5865C21.8181 11.0449 22.2132 11.5047 22.2438 11.6083C22.2744 11.712 22.2172 12.249 22.1168 12.8017C22.0164 13.3544 21.9336 13.8411 21.9327 13.8834C21.932 13.9256 22.3674 13.7294 22.9003 13.4474C23.4333 13.1653 23.9818 12.9345 24.1194 12.9345C24.257 12.9345 24.8166 13.1658 25.3629 13.4486L26.3563 13.9626L26.3036 13.701C26.0654 12.5183 25.9648 11.7761 26.0152 11.575C26.0482 11.4439 26.4328 10.9986 26.8718 10.5834C27.3101 10.1689 27.648 9.80928 27.6228 9.78441C27.5975 9.75953 27.1238 9.67205 26.57 9.59007C26.0162 9.50819 25.4678 9.37866 25.3514 9.30229C25.2349 9.22591 24.9246 8.73141 24.662 8.2033C24.3993 7.67519 24.1619 7.2431 24.1345 7.2431C24.107 7.2431 23.8697 7.67519 23.607 8.2033ZM36.8051 8.15584C36.5531 8.65778 36.2606 9.14908 36.1548 9.24758C36.0146 9.3783 35.6654 9.47074 34.8621 9.58952L33.7617 9.75237L34.5505 10.5449C35.4904 11.4891 35.5124 11.5641 35.2602 12.9575C35.1619 13.5002 35.0903 13.9443 35.101 13.9443C35.1117 13.9443 35.5505 13.718 36.0763 13.4413C36.6019 13.1647 37.1524 12.9375 37.2996 12.9364C37.4514 12.9353 37.9779 13.1538 38.5159 13.4411C39.0769 13.7407 39.4645 13.9001 39.4645 13.8313C39.4644 13.7672 39.4024 13.3637 39.3269 12.9345C39.0802 11.534 39.0725 11.56 40.0173 10.5965L40.8455 9.75209L39.7721 9.59944C39.1817 9.51544 38.6037 9.38445 38.4876 9.30835C38.3699 9.23124 38.0727 8.74343 37.8163 8.20651C37.5632 7.67666 37.3352 7.2431 37.3096 7.2431C37.284 7.2431 37.057 7.6538 36.8051 8.15584ZM9.50051 27.1728C3.49451 28.0488 -0.5395 34.0187 0.942652 39.8378C1.67703 42.7209 3.545 45.1211 6.1423 46.5185C7.48557 47.2412 9.41679 47.7244 10.9616 47.7244C15.4966 47.7244 19.6026 44.6284 20.8706 40.2529C22.2492 35.4957 19.9951 30.3775 15.5515 28.1748C13.6606 27.2375 11.5047 26.8806 9.50051 27.1728ZM25.856 28.0841C25.6163 28.1245 25.2746 28.2475 25.0966 28.3574C23.6106 29.2759 23.7225 31.8364 25.2808 32.5688L25.6981 32.765L35.8703 32.7409L46.0425 32.7167L46.4846 32.4413C46.792 32.2498 47.0133 32.0123 47.2117 31.6611C47.4649 31.2128 47.4968 31.0738 47.4968 30.4218C47.4968 29.771 47.4645 29.6301 47.2129 29.1826C46.8411 28.5214 46.2271 28.1328 45.4215 28.0486C44.6056 27.9632 26.3771 27.9964 25.856 28.0841ZM9.42312 28.5872C8.17551 28.8237 6.87356 29.3549 5.86691 30.0378C5.25738 30.4514 4.16022 31.5349 3.6983 32.1795C3.13421 32.9666 2.51302 34.3208 2.27022 35.2926C1.97729 36.4646 1.97977 38.3351 2.27573 39.5324C2.5088 40.4751 3.22224 41.9814 3.79597 42.7421L4.15692 43.2207L4.40018 42.5953C4.76517 41.6571 5.28152 40.8691 6.00819 40.141C6.61597 39.5321 7.94226 38.6376 8.23729 38.6376C8.30614 38.6376 8.16642 38.4207 7.92693 38.1557C7.68743 37.8907 7.34273 37.364 7.16106 36.9853C6.84363 36.3235 6.83078 36.2575 6.83078 35.287C6.83078 34.3112 6.84225 34.2532 7.1718 33.5631C8.44842 30.8895 11.8238 30.2876 13.906 32.3621C14.8266 33.2794 15.2757 34.6584 15.0612 35.9095C14.9178 36.7454 14.5229 37.5628 13.9972 38.1115C13.7666 38.3521 13.5778 38.5649 13.5778 38.5844C13.5778 38.6038 13.6987 38.6618 13.8465 38.7134C14.1898 38.833 15.057 39.3872 15.5753 39.8181C16.3541 40.4654 17.1476 41.6779 17.6738 43.0245C17.7522 43.2251 17.7722 43.2128 18.1143 42.7547C20.7095 39.2786 20.4265 34.4353 17.4432 31.2698C16.2893 30.0455 14.8096 29.1645 13.2161 28.7529C12.0952 28.4633 10.4544 28.3917 9.42312 28.5872ZM26.1999 29.4264C25.3668 29.6125 25.0771 30.559 25.6714 31.1533L25.9037 31.3857H35.7663H45.6291L45.8974 31.1174C46.2782 30.7366 46.2784 30.1377 45.8979 29.7119L45.6301 29.412L36.0068 29.3987C30.714 29.3914 26.3009 29.4039 26.1999 29.4264ZM10.0429 32.6522C7.68761 33.4667 7.51971 36.7083 9.77535 37.8185C10.4322 38.1418 11.5071 38.1296 12.155 37.7915C13.1551 37.2696 13.7112 36.3736 13.7097 35.287C13.7068 33.3664 11.8455 32.0289 10.0429 32.6522ZM25.9086 35.0606C25.3709 35.1684 25.044 35.3562 24.6665 35.774C24.2598 36.2242 24.0964 36.6896 24.0964 37.3984C24.0964 38.11 24.2599 38.5725 24.6734 39.0312C25.3583 39.7909 24.4749 39.7349 35.8186 39.7372C46.8211 39.7394 46.1769 39.7708 46.8263 39.2005C47.8031 38.343 47.7943 36.4641 46.8093 35.5743C46.3341 35.1449 45.9049 35.0247 44.8221 35.0177C43.7245 35.0106 43.5036 35.1249 43.5036 35.7001C43.5036 36.2137 43.6833 36.3134 44.7001 36.3636C45.1815 36.3874 45.6665 36.4556 45.7778 36.5152C46.0249 36.6475 46.2575 37.0757 46.2575 37.3984C46.2575 37.708 46.028 38.1477 45.8036 38.2677C45.6856 38.3308 42.3656 38.3622 35.8039 38.3622H25.9807L25.7342 38.1503C25.5461 37.9884 25.4777 37.8312 25.4447 37.4848C25.3917 36.9279 25.6206 36.5811 26.1352 36.4382C26.3551 36.3771 29.0457 36.3435 33.745 36.3433L41.0147 36.3427L41.1576 36.1386C41.3508 35.8628 41.3375 35.4908 41.1251 35.2284L40.9496 35.0117L33.6207 34.9977C29.5897 34.99 26.1193 35.0183 25.9086 35.0606ZM9.73441 39.6053C7.66365 40.0546 5.90069 41.799 5.47723 43.8178L5.36653 44.3458L5.68552 44.6124C6.21914 45.0583 7.95639 45.8707 8.80441 46.071C10.4307 46.4551 12.0681 46.4043 13.6114 45.9219C14.4448 45.6614 15.7497 45.0081 16.24 44.6057L16.5612 44.3422L16.3997 43.7159C16.1332 42.6833 15.7222 41.9762 14.9091 41.1514C14.3376 40.5718 14.0179 40.3316 13.4691 40.0692C12.2571 39.4901 10.9906 39.3327 9.73441 39.6053ZM25.8786 42.0417C24.9393 42.2285 24.2406 43.0612 24.1578 44.0928C24.0673 45.2207 24.5042 46.0954 25.3563 46.4921C25.8033 46.7002 25.9331 46.714 27.4569 46.7148C29.0318 46.7158 29.0855 46.7095 29.224 46.5117C29.4172 46.2359 29.404 45.8639 29.1917 45.6014C29.0223 45.392 28.9653 45.3837 27.5164 45.3558C26.0551 45.3275 26.01 45.3208 25.7724 45.0943C25.4474 44.7845 25.3675 44.3289 25.5651 43.9126C25.6497 43.7342 25.8066 43.5381 25.9135 43.4767C26.063 43.3911 28.3862 43.3652 35.915 43.3652H45.7218L45.9897 43.665C46.3444 44.0619 46.3644 44.6536 46.036 45.0353L45.8145 45.2929L38.8395 45.3388C32.1444 45.3829 31.8568 45.3917 31.6714 45.5596C31.4216 45.7858 31.4084 46.3488 31.648 46.5655C31.804 46.7068 32.3917 46.7171 38.976 46.6945L46.1343 46.6699L46.5763 46.3945C48.0404 45.4823 47.9329 43.007 46.3952 42.2224L45.9362 41.9882L36.114 41.9739C30.6417 41.966 26.1088 41.996 25.8786 42.0417Z" fill="#0E384C"/>
<path fill-rule="evenodd" clip-rule="evenodd" d="M3.89415 0.85303C2.36353 1.22618 1.07002 2.55898 0.739459 4.10356C0.667857 4.43797 0.63582 6.43217 0.636738 10.4834C0.638207 16.8928 0.652711 17.1026 1.15567 17.982C1.48164 18.5519 2.24061 19.3171 2.79764 19.6373C3.55588 20.0732 4.17367 20.1865 5.79278 20.1865H7.23987L8.91755 22.4125L10.5953 24.6386L10.9811 24.6666L11.3667 24.6946L13.0465 22.4446L14.7262 20.1944L29.3256 20.1905C45.2905 20.1861 44.4876 20.2125 45.4322 19.6598C46.455 19.0614 47.3847 17.7879 47.5166 16.8045C47.5447 16.5945 47.6036 16.4228 47.6475 16.4228C47.6917 16.4228 47.7265 13.7207 47.7258 10.3412C47.725 6.99644 47.6895 4.3146 47.647 4.3817C47.5952 4.46349 47.5531 4.38042 47.5195 4.12954C47.385 3.12693 46.4281 1.81451 45.4525 1.29457C44.3163 0.688897 45.436 0.725524 28.0634 0.725524C12.4159 0.725524 12.2921 0.726993 12.11 0.909118C11.8937 1.12539 11.8666 1.61843 12.0566 1.8784C12.1845 2.05327 12.4817 2.0574 28.144 2.10248L44.1012 2.14838L44.6266 2.40642C45.2039 2.68989 45.6749 3.17935 46.0007 3.83413L46.2125 4.2597V10.456V16.6523L45.9549 17.1768C45.639 17.8203 45.0302 18.3735 44.3637 18.6229C43.8697 18.8077 43.7211 18.8095 29.0501 18.8095H14.2353L13.9759 19.0311C13.8332 19.153 13.1174 20.0601 12.3854 21.0469C11.6533 22.0337 11.0275 22.8324 10.9948 22.8219C10.9621 22.8113 10.3192 21.9765 9.5661 20.9667C8.8129 19.957 8.12094 19.0688 8.02831 18.9931C7.89539 18.8844 7.46138 18.8455 5.96876 18.8083C4.14402 18.7629 4.0614 18.7526 3.61298 18.5171C3.05806 18.2257 2.52381 17.6592 2.25438 17.0766C2.06014 16.6564 2.05821 16.5914 2.05821 10.456V4.2597L2.31341 3.74004C2.60725 3.14171 3.13618 2.62618 3.74526 2.34455C4.13888 2.1626 4.36103 2.14507 6.81623 2.10248C9.30135 2.05942 9.47099 2.04566 9.59308 1.8784C9.79384 1.60356 9.75511 1.15458 9.51083 0.92509C9.3031 0.72993 9.24343 0.725708 6.82577 0.733327C5.2197 0.738376 4.19231 0.780327 3.89415 0.85303ZM0.678689 10.456C0.678689 13.8135 0.690164 15.1869 0.704209 13.5082C0.718162 11.8295 0.718162 9.08244 0.704209 7.40375C0.690164 5.72497 0.678689 7.09852 0.678689 10.456ZM10.4089 5.4258C10.2472 5.55294 9.93787 6.07811 9.57601 6.83975C9.25931 7.50619 8.96584 8.07267 8.92379 8.09865C8.88175 8.12463 8.26992 8.23267 7.5641 8.33879C6.06111 8.5647 5.81316 8.64897 5.63398 8.9956C5.32912 9.58512 5.44157 9.79643 6.70414 11.0068L7.7096 11.9706L7.47717 13.251C7.17093 14.938 7.1746 15.0903 7.52986 15.4221C7.97158 15.8347 8.24624 15.7846 9.69278 15.0278L10.9553 14.3672L12.2441 15.0308C12.9529 15.3957 13.6285 15.693 13.7454 15.6914C14.2301 15.6846 14.675 15.2651 14.6783 14.8116C14.6794 14.6575 14.5763 13.9553 14.4492 13.251L14.2182 11.9706L15.2238 11.0068C16.4666 9.81571 16.5794 9.61137 16.3147 9.03057C16.1477 8.66393 15.8346 8.55378 14.3307 8.33218L12.9473 8.12839L12.3698 6.89593C12.0149 6.13824 11.6917 5.57864 11.5311 5.44352C11.1989 5.1639 10.7507 5.15693 10.4089 5.4258ZM23.6305 5.39229C23.4216 5.51962 23.2031 5.87459 22.7263 6.86068C22.3805 7.57587 22.0636 8.16107 22.0222 8.16107C21.5933 8.16107 19.2654 8.57471 19.1018 8.68C18.8332 8.85294 18.6206 9.34736 18.6896 9.63827C18.7184 9.7599 19.2167 10.3397 19.7968 10.9268L20.8515 11.9942L20.6114 13.4218C20.3494 14.9796 20.3648 15.1581 20.7903 15.4928C21.1913 15.8082 21.4933 15.7397 22.8633 15.0229L24.1354 14.3574L25.4074 15.0229C26.8403 15.7726 27.1028 15.8232 27.5389 15.4335C27.8961 15.1143 27.9029 14.9404 27.6235 13.2752L27.411 12.0093L28.4812 10.9258C29.5078 9.88639 29.5514 9.82645 29.5514 9.45357C29.5514 8.83192 29.2339 8.58297 28.2639 8.4439C27.8361 8.38248 27.1827 8.28821 26.812 8.23432L26.138 8.13629L25.4835 6.80936C24.9929 5.81502 24.7661 5.45013 24.5785 5.3531C24.2418 5.17896 23.9611 5.19052 23.6305 5.39229ZM36.7759 5.40863C36.6216 5.53026 36.2639 6.12024 35.8802 6.8861C35.529 7.58734 35.2046 8.16107 35.1595 8.16107C34.9966 8.16107 32.5307 8.53606 32.3678 8.58563C32.1255 8.65934 31.8473 9.16588 31.8447 9.53802C31.8427 9.8293 31.945 9.95818 32.9379 10.9164L34.0334 11.9734L33.8124 13.2113C33.5179 14.861 33.5226 15.0839 33.8588 15.4201C34.275 15.8363 34.552 15.7864 36.0275 15.0293L37.3169 14.3676L38.5723 15.028C39.8741 15.7129 40.1247 15.7794 40.5586 15.555C41.0535 15.2991 41.0861 15.0165 40.8062 13.4071L40.5564 11.9706L41.5619 11.0068C42.8398 9.78165 42.9558 9.5595 42.6173 8.98632C42.4022 8.62226 42.2127 8.55855 40.672 8.33154L39.3074 8.1305L38.675 6.85443C38.3272 6.15255 37.9735 5.51567 37.8891 5.43911C37.6186 5.19374 37.0676 5.17859 36.7759 5.40863ZM10.4498 8.18402C10.1922 8.70157 9.89234 9.1948 9.78356 9.28026C9.66129 9.37628 9.1732 9.49653 8.50612 9.59494L7.42659 9.7543L8.25358 10.5976C9.1923 11.5548 9.17798 11.5084 8.94298 12.8427C8.73074 14.0476 8.67585 14.0074 9.7541 13.4367C10.2873 13.1545 10.8201 12.9353 10.9704 12.9364C11.1176 12.9375 11.6613 13.1612 12.1788 13.4336C13.2462 13.9953 13.1921 14.0352 12.982 12.8427C12.747 11.5084 12.7327 11.5548 13.6714 10.5976L14.4984 9.7543L13.4189 9.59494C12.7518 9.49653 12.2637 9.37628 12.1415 9.28026C12.0327 9.1948 11.7329 8.70157 11.4752 8.18402C11.2175 7.66647 10.9868 7.2431 10.9625 7.2431C10.9382 7.2431 10.7075 7.66647 10.4498 8.18402ZM23.6079 8.2033C23.3453 8.73141 23.0331 9.2272 22.9142 9.30514C22.7953 9.38307 22.2134 9.51572 21.6212 9.5999L20.5444 9.7531L21.3667 10.5865C21.819 11.0449 22.2141 11.5047 22.2447 11.6083C22.2753 11.712 22.2181 12.249 22.1177 12.8017C22.0172 13.3544 21.9344 13.8411 21.9336 13.8834C21.9329 13.9256 22.3683 13.7294 22.9012 13.4474C23.4341 13.1653 23.9827 12.9345 24.1203 12.9345C24.2579 12.9345 24.8175 13.1658 25.3638 13.4486L26.3571 13.9626L26.3044 13.701C26.0663 12.5183 25.9657 11.7761 26.0161 11.575C26.0491 11.4439 26.4337 10.9986 26.8727 10.5834C27.311 10.1689 27.6489 9.80928 27.6236 9.78441C27.5984 9.75953 27.1246 9.67205 26.5709 9.59007C26.0171 9.50819 25.4687 9.37866 25.3522 9.30229C25.2357 9.22591 24.9255 8.73141 24.6628 8.2033C24.4002 7.67519 24.1628 7.2431 24.1354 7.2431C24.1079 7.2431 23.8705 7.67519 23.6079 8.2033ZM36.806 8.15584C36.554 8.65778 36.2615 9.14908 36.1557 9.24758C36.0154 9.3783 35.6662 9.47074 34.863 9.58952L33.7626 9.75237L34.5514 10.5449C35.4913 11.4891 35.5133 11.5641 35.2611 12.9575C35.1627 13.5002 35.0911 13.9443 35.1019 13.9443C35.1126 13.9443 35.5514 13.718 36.0771 13.4413C36.6027 13.1647 37.1533 12.9375 37.3005 12.9364C37.4522 12.9353 37.9788 13.1538 38.5168 13.4411C39.0778 13.7407 39.4653 13.9001 39.4653 13.8313C39.4653 13.7672 39.4033 13.3637 39.3277 12.9345C39.0811 11.534 39.0734 11.56 40.0181 10.5965L40.8463 9.75209L39.773 9.59944C39.1826 9.51544 38.6046 9.38445 38.4884 9.30835C38.3708 9.23124 38.0735 8.74343 37.8171 8.20651C37.5641 7.67666 37.3361 7.2431 37.3105 7.2431C37.2849 7.2431 37.0579 7.6538 36.806 8.15584Z" fill="#1E84B5"/>
</g>
<defs>
<clipPath id="clip0_107_939">
<rect width="47" height="47" fill="white" transform="translate(0.634766 0.725586)"/>
</clipPath>
</defs>
</svg>
